# xmcd
#
# Track frame offsets:
#	150
#	17607
#	43055
#	64886
#	85840
#	112301
#	127127
#	152341
#	174500
#	194252
#
# Disc length: 2822 seconds
# Revision: 0
# Processed by: cddbd v1.5.2PL0 Copyright (c) Steve Scherf et al.
# Submitted via: dBpowerAMP V12.0
#
DISCID=850b040a
DTITLE=Jeff Chaz - Chronicles
DYEAR=2014
DGENRE=Blues
TTITLE0=Tired of Being Lonely
TTITLE1=Instrument of Pleasure
TTITLE2=I Smell Somethin' Funky
TTITLE3=Morning Coffee
TTITLE4=Dreams Don't Lie
TTITLE5=Don't Go Monkeyin' Around
TTITLE6=Seafood Dept. Blues
TTITLE7=The Scent of a Woman
TTITLE8=Hello Blues
TTITLE9=I've Got to Be Clean
EXTD=
EXTT0=
EXTT1=
EXTT2=
EXTT3=
EXTT4=
EXTT5=
EXTT6=
EXTT7=
EXTT8=
EXTT9=
PLAYORDER=
